<svg
  xmlns="http://www.w3.org/2000/svg"
  viewBox="0 0 914 213"
>
  <clipPath id="cl_3">
    <rect y="-7.6293945e-06" width="913.99994" height="213"/>
  </clipPath>
  <g clip-path="url(#cl_3)">
    <path
      fill="currentColor"
      transform="matrix(0.928862 0 0 0.930131 0 -114.406)"
      d="M94.8794 139.295C99.8722 138.819 99.9475 140.138 101.932 144.357C106.956 155.035 111.515 166.194 117.609 176.315C129.178 195.53 150.442 205.305 170.393 213.455C172.025 214.122 175.527 215.292 176.327 216.921C176.813 217.704 176.606 220.694 175.789 221.119C159.677 229.508 141.242 234.842 128.041 248.086C114.69 261.479 107.399 280.778 99.8315 297.856C94.9803 298.083 94.742 297.544 92.6844 293.172C84.8678 276.566 78.7514 258.798 64.6688 246.257C54.831 237.496 43.5338 232.286 31.6291 226.968C28.1083 225.38 21.1356 222.543 18.3025 220.171C17.6627 217.691 18.2782 216.651 20.5761 215.44C28.2512 211.396 36.6696 208.107 44.4319 204.277C48.0961 202.479 51.6629 200.489 55.1175 198.315C77.0135 184.303 84.6642 162.06 94.8794 139.295Z"/><path fill="#11100F" transform="matrix(0.928862 0 0 0.930131 0 -114.406)" d="M393.35 150.144L394.122 150.078C397.067 149.836 403.03 149.067 403.214 153.185C399.768 159.769 380.121 161.415 379.925 168.122C378.899 203.458 382.549 239.224 384.51 274.535C385.368 289.987 404.552 287.089 408.132 293.196C407.838 295.782 402.684 296.073 400.436 295.933C383.009 294.849 365.778 296.29 348.46 295.588C347.022 295.53 346.735 295.038 345.996 294.055C345.882 288.465 363.008 289.24 363.777 280.211C364.97 266.201 363.973 252.324 363.494 238.331C363.164 229.096 362.767 219.864 362.303 210.635C362.022 204.3 361.879 196.469 360.967 190.354C350.773 205.548 312.255 292.384 307.226 296.137C306.229 296.88 305.864 296.933 304.706 296.801C300.938 290.023 295.739 273.781 292.737 265.57C286.737 249.257 280.407 233.068 273.75 217.012C270.107 208.143 265.901 197.231 261.385 188.95C259.633 197.616 258.204 211.695 257.373 220.647C254.973 239.156 253.386 255.962 254.454 274.686C255.304 289.576 273.218 287.636 275.394 293.579C274.387 295.635 270.94 295.837 268.834 295.881C261.979 296.023 255.079 295.531 248.211 295.365C240.18 295.17 231.876 296.819 223.979 295.468C222.629 295.232 222.203 294.478 221.663 293.407C222.314 287.886 234.913 288.615 238.141 282.788C240.377 278.75 241.628 273.673 242.493 269.17C245.383 254.132 253.409 179.573 250.319 168.666C247.963 160.347 235.411 159.931 229.042 156.318C227.941 155.694 226.824 154.867 226.532 153.568C226.368 152.84 226.725 152.562 227.097 151.956C232.659 148.626 262.737 151.069 269.803 152.596C273.93 159.635 275.088 168.342 277.873 175.978C281.26 185.266 309.438 258.705 312.221 261.415C313.032 262.203 313.202 262.121 314.273 262.104C318.243 259.723 352.216 183.2 357.83 173.542C359.469 170.174 361.885 154.926 364.452 153.148C367.855 150.793 388.609 150.512 393.35 150.144Z"/><path fill="#11100F" transform="matrix(0.928862 0 0 0.930131 0 -114.406)" d="M450.994 203.446C464.652 202.312 479.128 207.858 483.757 221.032C490.406 239.95 479.857 238.734 466.561 238.751C455.183 238.765 437.884 236.895 427.864 240.275C427.486 242.012 427.159 243.878 427.096 245.65C426.769 255.989 430.52 266.042 437.54 273.639C447.959 284.751 464.787 287.966 477.336 277.96C479.08 276.569 480.771 274.869 482.385 273.318C483.997 272.561 483.297 272.688 485.046 272.799C488.016 275.59 484.677 281.53 482.691 284.135C470.544 300.059 446.091 303.251 430.074 291.417C409.259 276.038 406.244 241.433 421.326 221.159C429.161 210.596 438.15 205.422 450.994 203.446ZM451.761 230.628C456.62 230.661 472.193 231.607 470.893 224.711C469.225 215.86 457.801 210.495 450.038 210.568C442.547 212.86 429.279 219.681 430.432 228.967C432.764 232.126 447.279 230.504 451.761 230.628Z"/><path fill="#11100F" transform="matrix(0.928862 0 0 0.930131 0 -114.406)" d="M528.602 203.416C531.389 203.062 534.41 203.041 537.201 203.352C545.297 204.253 552.935 208.085 558.02 214.539C561.533 218.997 564.296 226.547 563.511 232.327C563.239 234.331 562.331 236.151 560.531 237.182C552.5 241.781 513.349 234.894 506.619 240.504C505.482 241.451 505.354 243.735 505.284 245.113C504.689 255.444 508.29 265.576 515.27 273.213C521.112 279.643 528.309 283.541 537.105 283.847C548.047 284.228 552.911 280.458 560.359 273.591C561.593 272.82 561.754 272.755 563.205 272.717C566.028 275.03 563.118 281.026 561.482 283.385C550.093 299.808 524.866 303.122 508.8 291.931C487.902 277.374 484.423 242.657 498.428 222.345C505.917 211.454 515.848 205.81 528.602 203.416ZM528.876 230.655C533.449 230.69 538.811 230.988 543.191 230.206C553.682 228.331 547.386 219.382 542.426 215.248C538.315 211.82 533.11 210.391 527.912 210.564C519.121 212.93 513.776 217.051 508.536 224.753C507.794 225.843 507.627 226.847 507.812 228.147C510.031 232.337 524.049 230.631 528.876 230.655Z"/><path fill="#11100F" transform="matrix(0.928862 0 0 0.930131 0 -114.406)" d="M802.185 203.436C807.824 202.756 812.877 203.206 818.702 205.319C830.16 209.475 839.389 222.239 836.052 234.686C835.577 235.994 834.223 237.405 832.821 237.672C822.812 239.581 811.447 238.102 801.289 238.346C793.37 238.537 786.526 237.572 779.088 240.431C778.798 242.245 778.508 244.166 778.449 246.002C778.116 256.333 781.916 266.37 789.006 273.889C794.884 280.078 802.655 283.886 811.266 283.929C821.254 283.979 826.591 280.348 833.256 273.792C834.709 272.799 835.067 272.698 836.535 272.857L837.281 273.927C837.831 277.213 836.405 281.163 834.463 283.8C822.575 299.898 797.16 303.164 781.179 291.461C760.48 276.303 757.77 240.906 772.757 220.883C780.492 210.548 789.758 205.425 802.185 203.436ZM801.349 230.654C811.372 230.726 833.186 232.412 815.943 215.465C812.465 212.046 806.523 210.386 801.619 210.625C797.006 211.647 793.4 213.531 789.653 216.378C787.009 218.387 780.31 224.234 781.16 227.747C781.393 228.698 782.005 229.513 782.854 230.002C785.202 231.338 797.889 230.723 801.349 230.654Z"/><path fill="#11100F" transform="matrix(0.928862 0 0 0.930131 0 -114.406)" d="M919.05 139.406C922.444 139.285 925.294 139.734 927.751 142.188C946.602 161.021 962.954 198.139 965.509 223.629C969.224 260.687 951.447 309.396 928.913 338.025C926.046 341.535 921.443 343.205 917.487 340.395C914.685 335.629 921.67 330.277 923.992 325.844C949.862 276.484 957.188 210.539 928.207 160.839C925.647 156.449 916.303 145.918 916.362 142.269C916.861 140.835 917.807 140.345 919.05 139.406Z"/><path fill="#11100F" transform="matrix(0.928862 0 0 0.930131 0 -114.406)" d="M680.749 139.372C683.21 139.369 685.146 139.279 686.976 141.07C687.496 142.517 687.726 144.004 686.755 145.364C677.047 158.953 670.25 170.545 664.87 186.506C660.631 199.074 658.116 212.16 657.393 225.405C655.865 254.568 663.563 288.932 674.965 315.822C676.964 320.493 679.723 324.739 682.396 329.028C684.326 332.124 688.834 335.561 687.449 339.417C684.623 342.877 681.216 342.498 677.712 340.336C672.768 335.774 666.233 325.636 663.112 319.677C644.434 284.021 630.916 243.943 642.836 203.805C648.007 186.394 665.109 148.028 680.749 139.372Z"/><path fill="#11100F" transform="matrix(0.928862 0 0 0.930131 0 -114.406)" d="M725.615 189.692C733.581 191.294 726.486 199.204 728.971 203.483C734.554 213.095 763.501 197.505 760.761 214.369C760.236 217.605 751.682 218.25 749.194 217.819C742.293 217.694 735.848 216.778 728.946 219.142C727.315 225.995 727.574 236.593 727.849 244.01C728.266 255.259 725.706 271.491 732.613 280.949C740.261 291.422 753.111 281.134 759.814 281.83C761.423 282.843 760.93 282.449 761.792 284.36C761.376 284.909 760.948 285.449 760.51 285.979C755.43 292.146 745.392 297.766 737.263 298.181C707.395 299.707 711.624 268.794 711.645 248.718C711.655 240.174 712.474 231.178 712.054 222.607C711.746 216.321 705.016 218.825 701.765 216.087C698.961 209.762 713.427 202.504 716.878 197.633C718.038 195.996 723.922 190.776 725.615 189.692Z"/><path fill="#11100F" transform="matrix(0.928862 0 0 0.930131 0 -114.406)" d="M599.424 203.438C606.808 202.185 615.475 204.087 622.108 207.516C624.407 211.449 628.824 224.2 624.184 227.08C618.897 226.647 615.145 216.541 611.251 213.33C605.962 208.969 595.068 209.63 590.971 215.173C578.658 231.949 608.013 241.467 618.119 250.478C629.274 260.425 632.79 271.453 624.449 285.396C618.601 295.172 606.466 297.299 595.789 298.129C586.723 297.655 579.246 295.921 572.272 289.764C570.848 285.347 568.118 272.786 572.797 269.971C577.63 270.334 580.669 284.415 586.811 288.004C594.139 292.288 605.214 293.027 609.857 285.097C624.074 260.813 576.599 255.537 574.474 234.039C572.607 215.213 581.776 206.258 599.424 203.438Z"/><path fill="#11100F" transform="matrix(0.928862 0 0 0.930131 0 -114.406)" d="M871.874 199.877C873.242 199.795 872.76 199.639 873.85 200.301C875.249 203.267 874.521 213.171 874.385 216.925C880.163 210.853 885.88 206.425 894.382 203.879C903.968 201.008 914.761 207.044 908.231 217.713C902.536 227.018 892.233 217.48 884.289 219.228C881.226 219.902 878.231 221.441 876.243 224.046C875.125 225.561 873.606 232.047 873.566 233.885C873.381 242.407 872.563 277.545 874.246 283.415C876.091 285.969 880.771 287.397 883.767 288.595C886.334 289.551 889.658 290.385 889.662 293.529C888.633 294.944 885.933 295.859 884.22 295.729C871.603 294.774 858.983 295.979 846.462 295.171C845.129 295.085 844.158 294.407 843.468 293.364C844.791 289.449 853.054 287.546 855.845 283.79C859.09 279.426 856.722 231.631 855.345 223.851C853.05 221.099 846.16 217.396 846.026 214.422C848.284 211.932 867.371 202.376 871.874 199.877Z"
    />
  </g>
</svg>
